<?xml version="1.0" encoding="UTF-8" standalone="no"?>
<!-- Created with Inkscape (http://www.inkscape.org/) -->

<svg
   xmlns:dc="http://purl.org/dc/elements/1.1/"
   xmlns:cc="http://creativecommons.org/ns#"
   xmlns:rdf="http://www.w3.org/1999/02/22-rdf-syntax-ns#"
   xmlns:svg="http://www.w3.org/2000/svg"
   xmlns="http://www.w3.org/2000/svg"
   xmlns:sodipodi="http://sodipodi.sourceforge.net/DTD/sodipodi-0.dtd"
   xmlns:inkscape="http://www.inkscape.org/namespaces/inkscape"
   width="300"
   height="200"
   viewBox="0 0 79.374998 52.916668"
   version="1.1"
   id="svg8"
   inkscape:version="0.92.2 5c3e80d, 2017-08-06"
   sodipodi:docname="ridon.svg">
  <defs
     id="defs2" />
  <sodipodi:namedview
     id="base"
     pagecolor="#ffffff"
     bordercolor="#666666"
     borderopacity="1.0"
     inkscape:pageopacity="0.0"
     inkscape:pageshadow="2"
     inkscape:zoom="1.4"
     inkscape:cx="89.131003"
     inkscape:cy="142.60153"
     inkscape:document-units="px"
     inkscape:current-layer="layer1"
     showgrid="false"
     units="px"
     inkscape:window-width="1600"
     inkscape:window-height="835"
     inkscape:window-x="0"
     inkscape:window-y="33"
     inkscape:window-maximized="1" />
  <metadata
     id="metadata5">
    <rdf:RDF>
      <cc:Work
         rdf:about="">
        <dc:format>image/svg+xml</dc:format>
        <dc:type
           rdf:resource="http://purl.org/dc/dcmitype/StillImage" />
        <dc:title></dc:title>
      </cc:Work>
    </rdf:RDF>
  </metadata>
  <g
     inkscape:label="Layer 1"
     inkscape:groupmode="layer"
     id="layer1"
     transform="translate(0,-244.08332)">
    <rect
       style="fill:#000000;fill-opacity:0.99680511;stroke:none;stroke-width:0.07016739;stroke-linecap:butt;stroke-linejoin:round;stroke-miterlimit:4;stroke-dasharray:none;stroke-opacity:1"
       id="rect4504"
       width="79.375"
       height="52.916668"
       x="-2.8421709e-14"
       y="244.08331" />
    <g
       id="g4591"
       transform="matrix(0.85714287,0,0,0.85714287,5.6696419,38.648803)">
      <path
         inkscape:export-ydpi="90"
         inkscape:export-xdpi="90"
         inkscape:export-filename="/home/cho2/Gambar/ridon.png"
         style="fill:#fb8b00;fill-opacity:1;stroke:none;stroke-width:0.22857478"
         d="m 39.88514,246.37997 c -7.347489,0.0373 -14.534086,3.61301 -18.907429,10.15016 -2.69508,4.02856 -3.932332,8.59548 -3.850045,13.1002 h 45.707798 c 0.122972,-7.50286 -3.442222,-14.91038 -10.143006,-19.39317 l -0.749999,-0.47857 c -3.760192,-2.30826 -7.935544,-3.39958 -12.057319,-3.37862 z m -9.264431,12.90734 c 0.546797,-0.0156 1.100564,0.12197 1.600023,0.42858 l 0.100002,0.0572 c 1.335745,0.89359 1.693625,2.70004 0.800011,4.03576 -0.893589,1.33574 -2.700016,1.70075 -4.035761,0.80716 -1.335745,-0.89361 -1.693626,-2.70719 -0.800012,-4.04292 0.54314,-0.81187 1.424432,-1.25969 2.335737,-1.28573 z m 17.457396,0 c 0.546797,-0.0156 1.107696,0.12197 1.607177,0.42858 l 0.09285,0.0572 c 1.335745,0.89359 1.693625,2.70004 0.800012,4.03576 -0.89359,1.33574 -2.700017,1.70075 -4.035762,0.80716 -1.335745,-0.89361 -1.693625,-2.70719 -0.800012,-4.04292 0.54314,-0.81187 1.424433,-1.25969 2.335737,-1.28573 z"
         id="path3234"
         inkscape:connector-curvature="0" />
      <g
         transform="matrix(0.22857477,0,0,0.22857477,-14.027254,224.11163)"
         id="text3244"
         style="font-style:normal;font-weight:normal;font-size:55.95628357px;line-height:125%;font-family:Sans;letter-spacing:0px;word-spacing:0px;fill:#ffffff;fill-opacity:1;stroke:none">
        <path
           inkscape:connector-curvature="0"
           id="path3005"
           style="font-variant:normal;font-stretch:normal;font-family:Comfortaa;-inkscape-font-specification:Comfortaa;fill:#ffffff"
           d="m 165.6081,269.49125 v 17.48634 h 8.74317 c 2.42257,2e-5 4.48085,-0.84697 6.17486,-2.54099 1.71218,-1.71217 2.56828,-3.77957 2.56831,-6.20218 -3e-5,-2.42256 -0.85613,-4.48084 -2.56831,-6.17487 -1.69401,-1.71216 -3.75229,-2.56826 -6.17486,-2.5683 h -8.74317 m -2.1858,-4.37159 h 10.92897 c 3.62475,5e-5 6.71218,1.2842 9.26229,3.85246 2.56828,2.55013 3.85243,5.63756 3.85246,9.2623 -3e-5,3.6248 -1.27507,6.71223 -3.82514,9.26229 -1.18399,1.18399 -2.46814,2.08563 -3.85246,2.70492 l 9.5082,15.2459 c 0.23677,0.34609 0.35516,0.74682 0.35519,1.20219 -3e-5,0.60109 -0.21861,1.12022 -0.65573,1.55737 -0.41898,0.41895 -0.929,0.62842 -1.53006,0.62842 -0.78327,0 -1.42079,-0.37341 -1.91257,-1.12022 l -10.2459,-16.39344 c -0.30967,0.0182 -0.62843,0.0273 -0.95628,0.0273 h -8.74317 v 15.30055 c -1e-5,0.60109 -0.21859,1.12022 -0.65574,1.55737 -0.41895,0.41895 -0.92897,0.62842 -1.53006,0.62842 -0.60109,0 -1.12022,-0.20947 -1.55737,-0.62842 -0.41895,-0.43715 -0.62842,-0.95628 -0.62842,-1.55737 v -39.34426 c 0,-0.60105 0.20947,-1.11107 0.62842,-1.53006 0.43715,-0.43711 0.95628,-0.65569 1.55737,-0.65574" />
        <path
           inkscape:connector-curvature="0"
           id="path3007"
           style="-inkscape-font-specification:Comfortaa;fill:#ffffff"
           d="m 201.12722,271.67704 c -1e-5,0.74685 -0.27323,1.39348 -0.81967,1.93989 -0.52824,0.52827 -1.16576,0.79239 -1.91257,0.79235 -0.74682,4e-5 -1.39345,-0.26408 -1.93989,-0.79235 -0.52824,-0.54641 -0.79235,-1.19304 -0.79235,-1.93989 0,-0.74677 0.26411,-1.3843 0.79235,-1.91257 0.54644,-0.54641 1.19307,-0.81963 1.93989,-0.81967 0.74681,4e-5 1.38433,0.27326 1.91257,0.81967 0.54644,0.52827 0.81966,1.1658 0.81967,1.91257 m -4.91803,8.74317 c -1e-5,-0.60106 0.20947,-1.11108 0.62841,-1.53005 0.43716,-0.43713 0.95628,-0.65571 1.55738,-0.65574 0.60109,3e-5 1.1111,0.21861 1.53006,0.65574 0.43715,0.41897 0.65573,0.92899 0.65573,1.53005 v 26.22951 c 0,0.60109 -0.21858,1.12022 -0.65573,1.55737 -0.41896,0.41895 -0.92897,0.62842 -1.53006,0.62842 -0.6011,0 -1.12022,-0.20947 -1.55738,-0.62842 -0.41894,-0.43715 -0.62842,-0.95628 -0.62841,-1.55737 v -26.22951" />
        <path
           inkscape:connector-curvature="0"
           id="path3009"
           style="-inkscape-font-specification:Comfortaa;fill:#ffffff"
           d="m 233.36766,293.53496 c -3e-5,-3.02366 -1.0656,-5.60107 -3.19672,-7.73224 -2.13117,-2.13112 -4.70858,-3.19669 -7.73224,-3.19672 -3.0237,3e-5 -5.60111,1.0656 -7.73224,3.19672 -2.13116,2.13117 -3.19673,4.70858 -3.19672,7.73224 -1e-5,3.0237 1.06556,5.60111 3.19672,7.73224 2.13113,2.13116 4.70854,3.19673 7.73224,3.19673 3.02366,0 5.60107,-1.06557 7.73224,-3.19673 2.13112,-2.13113 3.19669,-4.70854 3.19672,-7.73224 m 0,-26.28415 c -3e-5,-0.60105 0.20944,-1.11107 0.62841,-1.53005 0.43713,-0.43712 0.95626,-0.6557 1.55738,-0.65574 0.60106,4e-5 1.11108,0.21862 1.53006,0.65574 0.43712,0.41898 0.6557,0.929 0.65573,1.53005 v 26.28415 c -3e-5,4.22588 -1.49365,7.83243 -4.48087,10.81968 -2.98728,2.98725 -6.59383,4.48087 -10.81967,4.48087 -4.22588,0 -7.83244,-1.49362 -10.81968,-4.48087 -2.98725,-2.98725 -4.48087,-6.5938 -4.48087,-10.81968 0,-4.22584 1.49362,-7.8324 4.48087,-10.81967 2.98724,-2.98722 6.5938,-4.48084 10.81968,-4.48087 4.22584,3e-5 7.83239,1.49365 10.81967,4.48087 0.0364,0.0365 0.0728,0.0729 0.10929,0.10929 v -15.57377" />
        <path
           inkscape:connector-curvature="0"
           id="path3011"
           style="font-variant:normal;font-stretch:normal;font-family:Comfortaa;-inkscape-font-specification:Comfortaa;fill:#ffffff"
           d="m 272.71192,293.53496 c -3e-5,4.22588 -1.49366,7.83243 -4.48088,10.81968 -2.98727,2.98725 -6.59382,4.48087 -10.81967,4.48087 -4.22588,0 -7.83243,-1.49362 -10.81967,-4.48087 -2.98725,-2.98725 -4.48088,-6.5938 -4.48087,-10.81968 -1e-5,-4.22584 1.49362,-7.8324 4.48087,-10.81967 2.98724,-2.98722 6.59379,-4.48084 10.81967,-4.48087 4.22585,3e-5 7.8324,1.49365 10.81967,4.48087 2.98722,2.98727 4.48085,6.59383 4.48088,10.81967 M 257.41137,282.606 c -3.02369,3e-5 -5.6011,1.0656 -7.73224,3.19672 -2.13115,2.13117 -3.19673,4.70858 -3.19672,7.73224 -10e-6,3.0237 1.06557,5.60111 3.19672,7.73224 2.13114,2.13116 4.70855,3.19673 7.73224,3.19673 3.02366,0 5.60107,-1.06557 7.73224,-3.19673 2.13112,-2.13113 3.1967,-4.70854 3.19672,-7.73224 -2e-5,-3.02366 -1.0656,-5.60107 -3.19672,-7.73224 -2.13117,-2.13112 -4.70858,-3.19669 -7.73224,-3.19672" />
        <path
           inkscape:connector-curvature="0"
           id="path3013"
           style="font-variant:normal;font-stretch:normal;font-family:Comfortaa;-inkscape-font-specification:Comfortaa;fill:#ffffff"
           d="m 277.08351,280.42021 c 0,-0.60106 0.20947,-1.11108 0.62842,-1.53005 0.43715,-0.43713 0.95628,-0.65571 1.55737,-0.65574 0.60109,3e-5 1.11111,0.21861 1.53006,0.65574 0.43715,0.41897 0.65573,0.92899 0.65574,1.53005 v 1.77596 c 2.73223,-2.64114 6.01091,-3.96172 9.83606,-3.96175 3.91619,3e-5 7.25863,1.39347 10.02733,4.18033 2.78685,2.76869 4.18029,6.11113 4.18032,10.02732 v 14.20765 c -3e-5,0.60109 -0.21861,1.12022 -0.65573,1.55737 -0.41898,0.41895 -0.929,0.62842 -1.53006,0.62842 -0.60112,0 -1.12025,-0.20947 -1.55738,-0.62842 -0.41897,-0.43715 -0.62844,-0.95628 -0.62841,-1.55737 v -14.20765 c -3e-5,-2.71401 -0.96542,-5.0273 -2.89618,-6.93989 -1.91259,-1.93076 -4.22588,-2.89615 -6.93989,-2.89618 -2.71404,3e-5 -5.03644,0.96542 -6.96721,2.89618 -1.91258,1.91259 -2.86886,4.22588 -2.86885,6.93989 v 14.20765 c -1e-5,0.60109 -0.21859,1.12022 -0.65574,1.55737 -0.41895,0.41895 -0.92897,0.62842 -1.53006,0.62842 -0.60109,0 -1.12022,-0.20947 -1.55737,-0.62842 -0.41895,-0.43715 -0.62842,-0.95628 -0.62842,-1.55737 v -26.22951" />
      </g>
      <path
         inkscape:export-ydpi="90"
         inkscape:export-xdpi="90"
         inkscape:export-filename="/home/cho2/Gambar/ridon.png"
         inkscape:connector-curvature="0"
         style="fill:#ffffff;stroke-width:0.22857478"
         d="m 16.559635,280.55876 c 0.228826,-0.21055 1.316065,-1.09684 2.416081,-1.96954 1.100016,-0.87272 3.030558,-3.05744 4.290142,-4.85497 5.054772,-7.21369 9.801012,-9.32079 14.753223,-6.54964 l 1.489459,0.83348 1.409301,-0.85702 c 2.407166,-1.46393 4.563426,-1.54516 7.337431,-0.27641 2.962765,1.35508 4.149387,2.45672 6.967213,6.46823 2.063732,2.93801 4.098756,5.06581 6.481374,6.77686 1.015444,0.72919 0.952289,0.73929 -3.123999,0.49925 -9.242583,-0.54428 -12.889149,-1.66722 -16.373406,-5.04198 -1.268637,-1.22877 -2.578919,-2.23413 -2.91172,-2.23413 -0.332759,0 -1.241618,0.74365 -2.019596,1.65255 -1.817467,2.12328 -6.525833,4.44112 -10.106456,4.97518 -4.296658,0.64088 -11.078928,1.01048 -10.609047,0.57814 z"
         id="path3250" />
    </g>
  </g>
</svg>
