<?xml version="1.0" encoding="UTF-8" standalone="no"?>
<!-- Created with Inkscape (http://www.inkscape.org/) -->

<svg
   xmlns:dc="http://purl.org/dc/elements/1.1/"
   xmlns:cc="http://creativecommons.org/ns#"
   xmlns:rdf="http://www.w3.org/1999/02/22-rdf-syntax-ns#"
   xmlns:svg="http://www.w3.org/2000/svg"
   xmlns="http://www.w3.org/2000/svg"
   xmlns:sodipodi="http://sodipodi.sourceforge.net/DTD/sodipodi-0.dtd"
   xmlns:inkscape="http://www.inkscape.org/namespaces/inkscape"
   width="300"
   height="200"
   viewBox="0 0 79.374998 52.916668"
   version="1.1"
   id="svg8"
   inkscape:version="0.92.2 5c3e80d, 2017-08-06"
   sodipodi:docname="SUSE.svg">
  <defs
     id="defs2" />
  <sodipodi:namedview
     id="base"
     pagecolor="#ffffff"
     bordercolor="#666666"
     borderopacity="1.0"
     inkscape:pageopacity="0.0"
     inkscape:pageshadow="2"
     inkscape:zoom="1.4"
     inkscape:cx="73.359621"
     inkscape:cy="142.60153"
     inkscape:document-units="px"
     inkscape:current-layer="layer1"
     showgrid="false"
     units="px"
     inkscape:window-width="1600"
     inkscape:window-height="832"
     inkscape:window-x="0"
     inkscape:window-y="32"
     inkscape:window-maximized="1" />
  <metadata
     id="metadata5">
    <rdf:RDF>
      <cc:Work
         rdf:about="">
        <dc:format>image/svg+xml</dc:format>
        <dc:type
           rdf:resource="http://purl.org/dc/dcmitype/StillImage" />
        <dc:title></dc:title>
      </cc:Work>
    </rdf:RDF>
  </metadata>
  <g
     inkscape:label="Layer 1"
     inkscape:groupmode="layer"
     id="layer1"
     transform="translate(0,-244.08332)">
    <rect
       style="fill:#ffffff;fill-opacity:0.99680511;stroke:none;stroke-width:0.07016739;stroke-linecap:butt;stroke-linejoin:round;stroke-miterlimit:4;stroke-dasharray:none;stroke-opacity:1"
       id="rect4504"
       width="79.375"
       height="52.916668"
       x="-2.8421709e-14"
       y="244.08331" />
    <g
       id="g3954"
       transform="matrix(0.12613227,0,0,0.12613227,-4.2786122,233.30497)">
      <path
         d="m 633.4573,426.83143 c -4.20779,0 -7.34592,-3.24123 -7.34592,-7.27504 0,-4.05315 3.1639,-7.33304 7.39747,-7.33304 4.18847,0 7.33949,3.26056 7.33949,7.29437 0,4.02737 -3.19613,7.31371 -7.39104,7.31371 m 0.0516,-16.45745 c -5.21947,0 -9.33061,4.16269 -9.33061,9.18241 0,5.02616 4.09181,9.14374 9.27906,9.14374 5.20659,0 9.33062,-4.18202 9.33062,-9.18241 0,-5.00038 -4.07892,-9.14374 -9.27907,-9.14374"
         style="fill:#003259;fill-opacity:1;fill-rule:nonzero;stroke:none"
         id="path264"
         inkscape:connector-curvature="0" />
      <path
         d="m 234.02901,357.88154 c -0.39281,-0.0644 -41.73645,-6.05717 -42.1553,-6.1216 -7.24282,-1.14056 -10.92867,-4.71686 -10.92867,-10.5936 0,-5.92829 5.09059,-9.27907 9.26617,-9.27907 h 68.34289 v -25.49809 h -68.18179 c -21.63182,0 -36.57498,16.45101 -36.57498,34.77716 0,16.01283 9.62703,32.59915 31.64547,35.99503 0.38663,0.0644 41.76224,6.05717 42.15531,6.12161 7.27504,1.14699 10.92223,4.72974 10.92223,10.61937 0,5.92185 -5.07771,9.24685 -9.28551,9.24685 h -49.92007 v 0.0206 c -10.10387,0.29022 -20.76835,8.04185 -20.76835,23.24276 v 2.26822 h 70.57888 c 21.63181,0 36.53631,-16.45101 36.53631,-34.77716 0,-16.01927 -9.6077,-32.62493 -31.63259,-36.02081"
         style="fill:#003259;fill-opacity:1;fill-rule:nonzero;stroke:none"
         id="path268"
         inkscape:connector-curvature="0" />
      <path
         d="m 506.89793,341.16567 v 52.73601 c 0,18.32615 14.94316,34.7836 36.56209,34.7836 h 73.92321 v -2.27466 c 0,-15.20091 -10.65803,-22.95279 -20.78768,-23.24276 v -0.0206 H 543.3247 c -4.18202,0 -9.28551,-3.325 -9.28551,-9.24685 0,-5.88963 3.87917,-10.61937 10.95446,-10.61937 h 23.08811 c 20.31084,-0.12888 32.02566,-12.57829 35.71151,-26.81263 h -55.53906 c -9.99433,0 -14.21502,7.93231 -14.21502,7.93231 V 341.1644 c 0,-5.92829 5.07127,-9.27907 9.28551,-9.27907 h 53.27085 c 10.12965,-0.27682 20.78768,-8.05474 20.78768,-23.25565 v -2.24244 h -73.92321 c -21.63826,0 -36.56209,16.45101 -36.56209,34.77716"
         style="fill:#003259;fill-opacity:1;fill-rule:nonzero;stroke:none"
         id="path272"
         inkscape:connector-curvature="0" />
      <path
         d="m 633.95605,419.20584 h -1.94602 v -2.59685 h 1.92025 c 0.94724,0 1.55295,0.44488 1.55295,1.32743 0,0.7217 -0.52839,1.26942 -1.52718,1.26942 m 3.49898,-1.41119 c 0,-1.79782 -1.33386,-2.88037 -3.4732,-2.88037 h -3.91139 v 8.74423 h 1.93959 v -2.81594 h 1.53362 l 1.90092,2.81594 h 2.26821 l -2.15222,-3.13169 c 1.12122,-0.39333 1.89447,-1.2952 1.89447,-2.73217"
         style="fill:#003259;fill-opacity:1;fill-rule:nonzero;stroke:none"
         id="path276"
         inkscape:connector-curvature="0" />
      <path
         d="m 468.27058,357.88154 c -0.37374,-0.0644 -41.73646,-6.05717 -42.13597,-6.1216 -7.25571,-1.14056 -10.92223,-4.71686 -10.92223,-10.5936 0,-5.92829 5.07126,-9.27907 9.24684,-9.27907 h 68.33644 v -25.49809 h -68.1689 c -21.6447,0 -36.58142,16.45101 -36.58142,34.77716 0,16.01283 9.62059,32.59915 31.65836,35.99503 0.36756,0.0644 41.73002,6.05717 42.12309,6.12161 7.27504,1.14699 10.948,4.72974 10.948,10.61937 0,5.92185 -5.08415,9.24685 -9.27262,9.24685 H 395.2044 v 25.53031 h 68.16245 c 21.62538,0 36.56209,-16.45101 36.56209,-34.77716 0,-16.01927 -9.62058,-32.62493 -31.65836,-36.02081"
         style="fill:#003259;fill-opacity:1;fill-rule:nonzero;stroke:none"
         id="path280"
         inkscape:connector-curvature="0" />
      <path
         d="m 353.84555,379.07647 c 0,15.19447 -12.30765,27.50856 -27.48923,27.50856 -15.20091,0 -27.515,-12.31409 -27.515,-27.50856 v -72.73755 h -26.484 v 71.21681 c 0,29.82188 24.17068,54.01189 53.999,54.01189 29.80899,0 53.98611,-24.19001 53.98611,-54.01189 v -71.21681 h -26.49688 z"
         style="fill:#003259;fill-opacity:1;fill-rule:nonzero;stroke:none"
         id="path284"
         inkscape:connector-curvature="0" />
      <path
         d="m 357.60872,194.6744 c 3.4281,0 6.20538,1.84937 6.20538,4.13692 0,2.26177 -2.77728,4.13692 -6.20538,4.13692 -3.40876,0 -6.1796,-1.87515 -6.1796,-4.13692 0,-2.28755 2.77084,-4.13692 6.1796,-4.13692 m -3.22834,20.90367 c 3.7374,0.12269 7.28149,-1.20499 10.01366,-3.72451 2.73217,-2.57107 4.29801,-6.0185 4.43333,-9.73013 0.23816,-7.71322 -5.80586,-14.18279 -13.51264,-14.44699 -3.72451,-0.16083 -7.24927,1.17922 -9.97499,3.72452 -2.73217,2.53885 -4.31734,5.98628 -4.43333,9.72368 -0.24487,7.69389 5.77364,14.18924 13.47397,14.45343"
         style="fill:#6bbf5a;fill-opacity:1;fill-rule:nonzero;stroke:none"
         id="path288"
         inkscape:connector-curvature="0" />
      <path
         d="m 334.78547,201.07629 c 0.2062,-5.33546 2.44864,-10.29074 6.37292,-13.93149 3.8856,-3.66007 8.98909,-5.54166 14.31166,-5.36768 11.064,0.39282 19.71157,9.69791 19.34427,20.72969 -0.1995,5.33546 -2.45508,10.27785 -6.34069,13.92504 -3.8985,3.64719 -9.01487,5.54811 -14.36322,5.36124 -11.03822,-0.39952 -19.66646,-9.68503 -19.32494,-20.7168 m 53.4835,19.71801 c 0.5088,-0.34126 2.33265,-1.56584 1.88803,-3.03503 -1.79138,-6.26337 -7.97098,-27.25725 -13.12601,-32.57338 -1.50141,-1.55295 -2.70639,-3.05436 -5.14215,-4.46555 -19.71157,-11.48928 -66.49996,-18.44214 -68.69729,-18.75144 0,0 -0.53484,-0.14176 -0.52839,0.42529 0,0 -0.17373,9.71724 -0.17373,10.79336 -4.76841,-1.59806 -39.51334,-12.81671 -72.10606,-13.96371 -27.59232,-0.96012 -65.29497,-2.2811 -118.57226,30.47915 l -1.57228,0.97946 c -25.085695,15.64553 -42.380839,34.91248 -51.421483,57.33044 -2.854601,7.04306 -6.649996,22.95279 -2.88682,37.91528 1.636724,6.5469 4.691082,13.09379 8.789336,19.00275 9.246845,13.28066 24.769945,22.11511 41.491587,23.61007 23.61651,2.09423 41.49804,-8.49937 47.8774,-28.34626 4.36245,-13.71883 0,-33.81059 -16.76676,-44.08199 -13.63506,-8.34472 -28.32047,-6.45024 -36.81984,-0.83125 -7.371698,4.91017 -11.547276,12.48807 -11.482839,20.85856 0.154652,14.8014 12.926249,22.66927 22.095769,22.70149 2.67418,0 5.36768,-0.46396 8.37049,-1.44341 1.07612,-0.34127 2.0749,-0.72815 3.20257,-1.43697 l 0.35466,-0.21909 0.22528,-0.12887 -0.0902,0.0464 c 2.08779,-1.41763 3.35721,-3.71807 3.35721,-6.20537 0,-0.68949 -0.0969,-1.37253 -0.29023,-2.06846 -1.089,-3.75673 -4.78774,-6.0185 -8.64112,-5.2968 l -0.50881,0.0902 -0.70237,0.21909 -1.02456,0.34797 c -2.09424,0.53483 -3.6923,0.56705 -4.03382,0.56705 -1.06967,-0.0711 -6.3858,-1.64317 -6.3858,-7.43614 v -0.0644 c 0.0516,-2.11356 0.8828,-3.60852 1.35964,-4.42688 1.63673,-2.57752 6.15383,-5.10993 12.21099,-4.55576 7.97742,0.67659 13.7124,4.75552 17.53357,12.46229 3.52475,7.18483 2.63551,16.00639 -2.37776,22.46307 -4.96817,6.41802 -13.78972,9.14375 -25.52387,7.86787 -11.850141,-1.2952 -21.863797,-8.10629 -27.469899,-18.72566 -5.477225,-10.34874 -5.786527,-22.64994 -0.766811,-32.10943 11.991901,-22.61127 34.62895,-22.38574 47.02037,-20.23996 17.65599,3.04792 44.3913,18.86743 54.43717,55.4553 h 24.38976 c -3.02213,-9.31129 -4.74263,-36.343 22.71438,-36.343 30.13763,0 33.92013,21.21941 42.47105,36.343 h 25.84606 c -6.78532,-9.72369 -11.57306,-20.55571 -10.05232,-29.66723 2.22955,-13.45465 12.92625,-12.24321 27.73409,-10.56783 4.83929,0.56706 10.36807,1.18566 16.03216,1.31454 15.94195,0.0969 30.33739,-2.82238 40.91165,-7.44258 6.83687,-2.98348 11.17999,-4.95528 13.92504,-7.44259 0.9859,-0.79903 1.49496,-2.14578 2.02335,-3.54408 l 0.37374,-0.94724 c 0.43818,-1.147 1.00523,-3.5892 1.3532,-4.90373 0.70237,-2.70639 -1.69472,-1.26943 -1.69472,-1.26943 -4.61375,2.78372 -16.22547,8.07408 -27.08327,8.28672 -13.42886,0.28353 -40.52502,-13.51908 -43.3474,-14.98182 l -0.27064,-0.32219 c -0.70237,-1.61739 -4.74908,-11.24442 -5.61255,-13.28066 19.49893,12.86181 35.67285,19.95643 48.05782,21.05832 13.78972,1.23077 24.54442,-6.30847 29.12595,-9.49815"
         style="fill:#6bbf5a;fill-opacity:1;fill-rule:nonzero;stroke:none"
         id="path292"
         inkscape:connector-curvature="0" />
    </g>
  </g>
</svg>
